<svg width="934" height="648" viewBox="0 0 934 648" fill="none" xmlns="http://www.w3.org/2000/svg">
<rect x="396" y="65" width="93" height="37" rx="10" fill="black"/>
<circle cx="439.229" cy="337" r="240" fill="white" stroke="black" stroke-width="20"/>
<path d="M626.869 465.095C596.509 512.14 556.386 546.044 516.505 563.103C476.557 580.191 437.973 580.034 408.895 561.268C379.816 542.503 363.777 507.41 362.89 463.971C362.005 420.603 376.369 370.075 406.728 323.03C437.088 275.985 477.211 242.081 517.092 225.022C557.04 207.934 595.624 208.091 624.702 226.857C653.781 245.622 669.82 280.715 670.707 324.154C671.592 367.522 657.229 418.05 626.869 465.095Z" fill="white" stroke="black" stroke-width="20"/>
<path d="M468.527 325.064C498.901 372.164 513.6 422.514 513.246 465.545C512.89 508.676 497.554 543.135 469.451 561.259C441.348 579.382 403.631 579.136 364.194 561.666C324.85 544.237 285.049 510.074 254.674 462.974C224.3 415.874 209.601 365.523 209.955 322.493C210.311 279.362 225.647 244.902 253.75 226.779C281.853 208.655 319.57 208.902 359.007 226.372C398.351 243.801 438.152 277.963 468.527 325.064Z" fill="white" stroke="black" stroke-width="20"/>
<path d="M412 47C412 38.7157 418.716 32 427 32H458C466.284 32 473 38.7157 473 47V65H412V47Z" fill="black"/>
<circle cx="442" cy="48" r="5" fill="white"/>
</svg>
